<?xml version="1.0" standalone="no"?>
<!DOCTYPE svg PUBLIC "-//W3C//DTD SVG 20010904//EN"
 "http://www.w3.org/TR/2001/REC-SVG-20010904/DTD/svg10.dtd">
<svg version="1.0" xmlns="http://www.w3.org/2000/svg"
 width="260.000000pt" height="260.000000pt" viewBox="0 0 260.000000 260.000000"
 preserveAspectRatio="xMidYMid meet">
<metadata>
Created by potrace 1.11, written by Peter Selinger 2001-2013
</metadata>
<g transform="translate(0.000000,260.000000) scale(0.100000,-0.100000)"
fill="#000000" stroke="none">
<path d="M1045 2575 c-413 -87 -748 -351 -925 -728 -140 -299 -157 -674 -45
-987 110 -305 337 -566 621 -712 206 -107 377 -148 612 -148 264 0 494 69 712
214 277 185 467 457 551 789 30 117 37 386 15 517 -45 259 -172 504 -355 690
-153 154 -317 256 -523 325 -207 69 -456 84 -663 40z m403 -282 c28 -49 67
-126 88 -173 34 -79 104 -274 104 -292 0 -4 -153 -8 -340 -8 -187 0 -340 2
-340 4 0 2 16 51 36 108 43 122 126 298 183 386 l41 62 89 0 89 0 50 -87z
m-586 -105 c-39 -90 -98 -252 -128 -355 -4 -15 -374 -19 -374 -4 0 20 89 140
155 210 88 93 207 183 309 232 44 21 82 37 84 34 2 -2 -18 -55 -46 -117z
m1065 -7 c40 -28 103 -82 141 -120 71 -71 172 -205 172 -228 0 -10 -39 -13
-185 -13 l-184 0 -11 43 c-19 74 -79 244 -120 339 -22 51 -40 96 -40 101 0 13
151 -68 227 -122z m-1244 -608 c-5 -16 -8 -151 -8 -301 l0 -272 -207 0 -207 0
-12 43 c-40 148 -39 362 2 520 l10 37 215 0 214 0 -7 -27z m1014 -20 c10 -61
7 -466 -4 -513 l-9 -35 -387 -3 -387 -2 -7 27 c-11 37 -10 465 0 526 l8 47
389 0 389 0 8 -47z m662 -8 c20 -70 20 -420 0 -490 l-14 -50 -218 -3 -218 -2
8 77 c10 96 9 399 0 471 l-8 52 218 -2 218 -3 14 -50z m-1628 -795 c37 -127
87 -268 124 -351 24 -54 39 -99 34 -99 -17 0 -132 61 -194 103 -127 86 -350
335 -330 367 4 7 70 9 182 8 l176 -3 8 -25z m899 17 c0 -56 -142 -377 -220
-500 l-30 -47 -89 0 c-86 0 -90 1 -109 27 -61 88 -164 315 -208 456 -16 51
-16 60 -4 68 9 5 159 9 338 9 259 0 322 -3 322 -13z m610 0 c0 -24 -101 -160
-169 -227 -36 -36 -98 -89 -136 -117 -73 -55 -227 -137 -245 -131 -6 2 4 31
21 68 43 90 103 244 123 313 9 32 21 69 26 82 l10 25 185 0 c148 0 185 -3 185
-13z"/>
</g>
</svg>
